<?xml version="1.0" standalone="no"?>
<!DOCTYPE svg PUBLIC "-//W3C//DTD SVG 20010904//EN"
 "http://www.w3.org/TR/2001/REC-SVG-20010904/DTD/svg10.dtd">
<svg version="1.0" xmlns="http://www.w3.org/2000/svg"
 width="1080.000000pt" height="1080.000000pt" viewBox="0 0 1080.000000 1080.000000"
 preserveAspectRatio="xMidYMid meet">
<metadata>
Created by potrace 1.14, written by Peter Selinger 2001-2017
</metadata>
<g transform="translate(0.000000,1080.000000) scale(0.100000,-0.100000)"
fill="#000000" stroke="none">
<path d="M4100 9184 c0 -889 -3 -1614 -7 -1612 -289 148 -490 221 -748 273
-170 34 -289 45 -485 45 -196 0 -315 -11 -485 -45 -1001 -201 -1769 -969
-1970 -1970 -34 -170 -45 -289 -45 -485 0 -196 11 -315 45 -485 201 -1001 969
-1769 1970 -1970 170 -34 289 -45 485 -45 196 0 315 11 485 45 923 185 1658
859 1920 1761 34 117 71 306 84 426 8 66 11 999 11 2888 l0 2790 -630 0 -630
0 0 -1616z m-965 -2573 c44 -11 114 -32 155 -47 344 -123 626 -408 748 -754
56 -160 67 -229 67 -420 0 -191 -11 -260 -67 -420 -124 -351 -407 -634 -758
-758 -160 -56 -229 -67 -420 -67 -191 0 -260 11 -420 67 -346 122 -631 404
-754 748 -67 184 -92 407 -67 593 32 237 136 469 295 656 183 215 474 376 761
421 100 15 368 4 460 -19z"/>
<path d="M7785 7898 c-105 -12 -298 -51 -409 -83 -902 -262 -1576 -996 -1761
-1920 -49 -247 -48 -136 -52 -3097 l-4 -2798 635 0 636 0 0 1616 c0 889 3
1614 8 1612 352 -181 639 -272 964 -307 125 -14 411 -14 536 0 1009 109 1854
819 2137 1795 34 117 71 306 84 426 14 125 14 411 0 536 -109 1009 -819 1854
-1795 2137 -117 34 -306 71 -426 84 -115 13 -439 12 -553 -1z m560 -1267 c44
-11 114 -32 155 -47 344 -123 626 -408 748 -754 56 -160 67 -229 67 -420 0
-191 -11 -260 -67 -420 -124 -351 -407 -634 -758 -758 -160 -56 -229 -67 -420
-67 -191 0 -260 11 -420 67 -346 122 -631 404 -754 748 -67 184 -92 407 -67
593 32 237 136 469 295 656 183 215 474 376 761 421 100 15 368 4 460 -19z"/>
</g>
</svg>
