<svg viewBox="0 0 286 280" version="1.1" xmlns="http://www.w3.org/2000/svg" desc="Created with imagetracer.js version 1.2.6" class="height-100pct position-absolute top-0 width-100pct"><path fill="rgb(0,0,0)" stroke="rgb(0,0,0)" stroke-width="1" opacity="0" d="M 0 0 L 94.5 0 L 95 1.5 L 0.5 278 L 0 0 Z "/><path fill="rgb(0,0,0)" stroke="rgb(0,0,0)" stroke-width="1" opacity="0" d="M 191 0 L 286 0 L 286 277.5 L 285 277.5 L 191 0 Z "/><path fill="rgb(0,0,0)" stroke="rgb(0,0,0)" stroke-width="1" opacity="0" d="M 142 33 Q 145 31.8 144 35.5 L 189 169 L 97.5 169 L 97 166.5 L 142 33 Z "/><path fill="rgb(0,0,0)" stroke="rgb(0,0,0)" stroke-width="1" opacity="0" d="M 77 224 L 208.5 224 L 209 226.5 L 227 280 L 59.5 280 L 59 277.5 L 77 224 Z "/><path fill="rgb(0,0,0)" stroke="rgb(0,0,0)" stroke-width="1" opacity="1" d="M 96 0 L 189.5 0 L 190 1.5 L 192 4.5 L 285 280 L 228.5 280 L 228 278.5 L 210 225.5 L 208.5 224 L 77.5 224 L 76 225.5 L 58 280 L 1.5 280 L 1 278.5 L 96 0 Z M 142 31 L 96 167 L 97 169 L 190 169 L 144 34 Q 145 30 142 31 Z "/></svg>