<svg class="fr-svg" focusable="false" viewBox="0 0 24 24" xmlns="http://www.w3.org/2000/svg"><path d="M9.9,13.313A1.2,1.2,0,0,1,9.968,13H6.277l1.86-5.2,1.841,5.148A1.291,1.291,0,0,1,11.212,12h.426l-2.5-7h-2l-5,14h2l1.43-4H9.9Zm2.651,6.727a2.884,2.884,0,0,1-.655-2.018v-2.71A1.309,1.309,0,0,1,13.208,14h3.113a3.039,3.039,0,0,1,2,1.092s1.728,1.818,2.964,2.928a1.383,1.383,0,0,1,.318,1.931,1.44,1.44,0,0,1-.19.215l-3.347,3.31a1.309,1.309,0,0,1-1.832.258h0a1.282,1.282,0,0,1-.258-.257l-1.71-1.728Zm2.48-3.96a.773.773,0,1,0,.008,0Z"></path></svg>