<svg class="fr-svg" focusable="false" viewBox="0 0 24 24" xmlns="http://www.w3.org/2000/svg"><path d="M10.4,12l3.6,3.6L12.6,17L9,13.4L5.4,17L4,15.6L7.6,12L4,8.4L5.4,7L9,10.6L12.6,7L14,8.4L10.4,12z M18.31234,19.674  l1.06812-1.1465c0.196-0.20141,0.37093-0.40739,0.5368-0.6088c0.15975-0.19418,0.30419-0.40046,0.432-0.617  c0.11969-0.20017,0.21776-0.41249,0.29255-0.6334c0.07103-0.21492,0.10703-0.43986,0.10662-0.66621  c0.00297-0.28137-0.04904-0.56062-0.1531-0.82206c-0.09855-0.24575-0.25264-0.46534-0.45022-0.6416  c-0.20984-0.18355-0.45523-0.32191-0.72089-0.40646c-0.63808-0.19005-1.3198-0.17443-1.94851,0.04465  c-0.28703,0.10845-0.54746,0.2772-0.76372,0.49487c-0.20881,0.20858-0.37069,0.45932-0.47483,0.73548  c-0.10002,0.26648-0.15276,0.54838-0.15585,0.833l-0.00364,0.237H17.617l0.00638-0.22692  c0.00158-0.12667,0.01966-0.25258,0.05377-0.37458c0.03337-0.10708,0.08655-0.20693,0.15679-0.29437  c0.07105-0.08037,0.15959-0.14335,0.25882-0.1841c0.22459-0.08899,0.47371-0.09417,0.7018-0.01458  c0.0822,0.03608,0.15559,0.08957,0.21509,0.15679c0.06076,0.07174,0.10745,0.15429,0.13761,0.24333  c0.03567,0.10824,0.05412,0.22141,0.05469,0.33538c-0.00111,0.08959-0.0118,0.17881-0.0319,0.26612  c-0.02913,0.10428-0.07076,0.20465-0.124,0.29893c-0.07733,0.13621-0.1654,0.26603-0.26338,0.38823  c-0.13438,0.17465-0.27767,0.34226-0.42929,0.50217l-2.15634,2.35315V21H21v-1.326H18.31234z"></path></svg>