<svg class="fr-svg" focusable="false" viewBox="0 0 24 24" xmlns="http://www.w3.org/2000/svg"><path d="M10.4,12,14,15.6,12.6,17,9,13.4,5.4,17,4,15.6,7.6,12,4,8.4,5.4,7,9,10.6,12.6,7,14,8.4Zm8.91234-3.326,1.06812-1.1465c.196-.20141.37093-.40739.5368-.6088a4.85745,4.85745,0,0,0,.432-.617,3.29,3.29,0,0,0,.29255-.6334,2.11079,2.11079,0,0,0,.10662-.66621,2.16127,2.16127,0,0,0-.1531-.82206,1.7154,1.7154,0,0,0-.45022-.6416,2.03,2.03,0,0,0-.72089-.40646,3.17085,3.17085,0,0,0-1.94851.04465,2.14555,2.14555,0,0,0-.76372.49487,2.07379,2.07379,0,0,0-.47483.73548,2.446,2.446,0,0,0-.15585.833l-.00364.237H18.617L18.62338,5.25a1.45865,1.45865,0,0,1,.05377-.37458.89552.89552,0,0,1,.15679-.29437.70083.70083,0,0,1,.25882-.1841,1.00569,1.00569,0,0,1,.7018-.01458.62014.62014,0,0,1,.21509.15679.74752.74752,0,0,1,.13761.24333,1.08893,1.08893,0,0,1,.05469.33538,1.25556,1.25556,0,0,1-.0319.26612,1.34227,1.34227,0,0,1-.124.29893,2.94367,2.94367,0,0,1-.26338.38823,6.41629,6.41629,0,0,1-.42929.50217L17.19709,8.92642V10H22V8.674Z"></path></svg>