<svg class="fr-svg" focusable="false" viewBox="0 0 24 24" xmlns="http://www.w3.org/2000/svg"><path d="M3,12.20294H21v1.5H16.63422a3.59782,3.59782,0,0,1,.34942,1.5929,3.252,3.252,0,0,1-1.31427,2.6997A5.55082,5.55082,0,0,1,12.20251,19a6.4421,6.4421,0,0,1-2.62335-.539,4.46335,4.46335,0,0,1-1.89264-1.48816,3.668,3.668,0,0,1-.67016-2.15546V14.704h.28723v-.0011h.34149v.0011H9.02v.11334a2.18275,2.18275,0,0,0,.85413,1.83069,3.69,3.69,0,0,0,2.32836.67926,3.38778,3.38778,0,0,0,2.07666-.5462,1.73346,1.73346,0,0,0,.7013-1.46655,1.69749,1.69749,0,0,0-.647-1.43439,3.00525,3.00525,0,0,0-.27491-.17725H3ZM16.34473,7.05981A4.18163,4.18163,0,0,0,14.6236,5.5462,5.627,5.627,0,0,0,12.11072,5,5.16083,5.16083,0,0,0,8.74719,6.06213,3.36315,3.36315,0,0,0,7.44006,8.76855a3.22923,3.22923,0,0,0,.3216,1.42786h2.59668c-.08338-.05365-.18537-.10577-.25269-.16064a1.60652,1.60652,0,0,1-.65283-1.30036,1.79843,1.79843,0,0,1,.68842-1.5108,3.12971,3.12971,0,0,1,1.96948-.55243,3.04779,3.04779,0,0,1,2.106.6687,2.35066,2.35066,0,0,1,.736,1.83258v.11341h2.00317V9.17346A3.90013,3.90013,0,0,0,16.34473,7.05981Z"></path></svg>