<svg xmlns="http://www.w3.org/2000/svg" width="55" height="23" viewBox="0 0 55 23" focusable="false"><path fill="#6772E5" fill-rule="evenodd" d="M54.07,11.62 C54.07,7.78 52.21,4.75 48.65,4.75 C45.08,4.75 42.91,7.78 42.91,11.6 C42.91,16.12 45.47,18.41 49.12,18.41 C50.91,18.41 52.26,18 53.28,17.44 L53.28,14.42 C52.26,14.94 51.09,15.25 49.6,15.25 C48.14,15.25 46.85,14.73 46.68,12.97 L54.02,12.97 C54.03,12.77 54.07,11.98 54.07,11.62 L54.07,11.62 Z M46.64,10.2 C46.64,8.51 47.68,7.8 48.62,7.8 C49.54,7.8 50.52,8.51 50.52,10.2 L46.64,10.2 L46.64,10.2 Z M37.11,4.75 C35.64,4.75 34.69,5.44 34.17,5.93 L33.97,5 L30.67,5 L30.67,22.51 L34.42,21.71 L34.43,17.47 C34.97,17.86 35.77,18.42 37.08,18.42 C39.76,18.42 42.22,16.26 42.22,11.5 C42.22,7.12 39.74,4.75 37.11,4.75 L37.11,4.75 Z M36.21,15.1 C35.33,15.1 34.81,14.78 34.44,14.39 L34.42,8.82 C34.81,8.39 35.35,8.08 36.21,8.08 C37.58,8.08 38.53,9.62 38.53,11.58 C38.53,13.59 37.6,15.1 36.21,15.1 L36.21,15.1 Z M25.5,3.85 L29.27,3.05 L29.27,0 L25.5,0.8 M25.5,5 L29.26,5 L29.26,18.15 L25.5,18.15 L25.5,5 Z M21.47,6.11 L21.23,5 L17.99,5 L17.99,18.15 L21.74,18.15 L21.74,9.24 C22.63,8.08 24.12,8.3 24.6,8.45 L24.6,5 C24.1,4.82 22.35,4.49 21.47,6.11 L21.47,6.11 Z M13.95,1.74 L10.29,2.52 L10.27,14.55 C10.27,16.77 11.94,18.41 14.17,18.41 C15.4,18.41 16.3,18.19 16.8,17.91 L16.8,14.86 C16.32,15.05 13.95,15.74 13.95,13.53 L13.95,8.2 L16.8,8.2 L16.8,5 L13.95,5 L13.95,1.74 Z M3.79,8.81 C3.79,8.22 4.28,8 5.06,8 C6.2,8 7.65,8.35 8.79,8.97 L8.79,5.44 C7.55,4.94 6.31,4.75 5.06,4.75 C2.03,4.75 0,6.34 0,8.99 C0,13.14 5.7,12.47 5.7,14.26 C5.7,14.95 5.1,15.18 4.26,15.18 C3.02,15.18 1.41,14.67 0.16,13.98 L0.16,17.56 C1.55,18.16 2.97,18.41 4.26,18.41 C7.38,18.41 9.53,16.87 9.53,14.17 C9.53,9.7 3.79,10.5 3.79,8.81 L3.79,8.81 Z"></path></svg>